<svg xmlns="http://www.w3.org/2000/svg" xmlns:xlink="http://www.w3.org/1999/xlink" width="500" zoomAndPan="magnify" viewBox="0 0 375 374.999991" height="500" preserveAspectRatio="xMidYMid meet" version="1.0"><path fill="#0079ff" d="M 160.753906 313.71875 C 160.820312 312.960938 160.917969 312.203125 160.953125 311.445312 C 161.710938 299.882812 161.515625 286.214844 158.746094 272.777344 L 158.746094 272.679688 C 151.527344 279.59375 143.847656 286.679688 135.542969 294.054688 C 135.277344 276.433594 130.101562 262.171875 120.378906 252.457031 L 120.378906 252.425781 C 120.34375 252.425781 120.34375 252.425781 120.34375 252.425781 C 110.625 242.710938 96.351562 237.539062 78.71875 237.277344 C 86.101562 228.976562 93.1875 221.300781 100.109375 214.089844 L 100.011719 214.089844 C 86.5625 211.324219 72.882812 211.089844 61.28125 211.882812 C 60.558594 211.914062 59.800781 212.015625 59.042969 212.078125 C 93.816406 177.367188 123.609375 178.78125 134.222656 180.757812 C 219.425781 103.394531 259.539062 113.375 259.539062 113.375 C 259.539062 113.375 269.523438 153.457031 192.101562 238.59375 C 194.078125 249.199219 195.496094 278.972656 160.753906 313.71875 Z M 296.1875 58.242188 C 233.265625 4.226562 138.9375 4.066406 75.882812 57.914062 C 13.292969 111.332031 0.0117188 198.578125 35.96875 266.421875 C 46.878906 287.039062 76.046875 288.453125 89.527344 269.386719 L 89.5625 269.351562 L 72.523438 252.359375 C 72.554688 252.328125 72.523438 252.328125 72.554688 252.328125 C 83.894531 251.4375 100.078125 252.359375 110.261719 262.535156 C 120.445312 272.710938 121.367188 288.882812 120.476562 300.214844 C 120.476562 300.214844 120.445312 300.214844 120.445312 300.246094 L 103.4375 283.21875 C 84.1875 296.820312 85.96875 326.066406 106.832031 337 C 170.839844 370.664062 252.023438 360.613281 305.777344 306.898438 C 374.992188 237.738281 371.796875 123.222656 296.1875 58.242188 " fill-opacity="1" fill-rule="nonzero"/><path fill="#0079ff" d="M 201.492188 190.277344 C 196.285156 195.480469 187.816406 195.480469 182.574219 190.277344 C 177.367188 185.039062 177.367188 176.578125 182.574219 171.371094 C 187.816406 166.136719 196.285156 166.136719 201.492188 171.371094 C 206.734375 176.578125 206.734375 185.039062 201.492188 190.277344 " fill-opacity="1" fill-rule="nonzero"/></svg>